<svg width="913" height="114" viewBox="0 0 913 114" fill="none" xmlns="http://www.w3.org/2000/svg">
<path d="M0 89L31.1719 1.69531H50.625L81.6797 89H64.6289L57.6562 68.1406H23.7891L16.6406 89H0ZM28.125 55.4258H53.4375L49.3359 43.1211C48.0469 39.0977 46.7188 34.8984 45.3516 30.5234C44.0234 26.1484 42.5391 21.207 40.8984 15.6992C39.2578 21.207 37.7539 26.1484 36.3867 30.5234C35.0195 34.8984 33.6719 39.0977 32.3438 43.1211L28.125 55.4258Z" fill="black"/>
<path d="M98.9695 54.0195V89H84.2039V27.125H98.7352V36.6172C103.032 29.4688 109.36 25.8945 117.72 25.8945C124.204 25.8945 129.497 27.9844 133.598 32.1641C137.739 36.3438 139.809 42.3984 139.809 50.3281V89H124.985V52.6719C124.985 48.1406 123.891 44.7031 121.704 42.3594C119.516 40.0156 116.45 38.8438 112.505 38.8438C108.637 38.8438 105.415 40.0547 102.837 42.4766C100.259 44.8984 98.9695 48.7461 98.9695 54.0195Z" fill="black"/>
<path d="M167.06 89.9961C160.888 89.9961 155.771 88.4531 151.709 85.3672C147.685 82.2422 145.673 77.5938 145.673 71.4219C145.673 66.7344 146.806 63.1211 149.072 60.582C151.377 58.0039 154.365 56.1289 158.037 54.957C161.748 53.7852 165.732 52.9844 169.99 52.5547C175.732 51.8906 179.736 51.3047 182.002 50.7969C184.267 50.2891 185.4 48.9805 185.4 46.8711V46.4023C185.4 43.7461 184.384 41.5781 182.353 39.8984C180.361 38.2188 177.607 37.3789 174.091 37.3789C170.498 37.3789 167.568 38.2188 165.302 39.8984C163.076 41.5781 161.865 43.7266 161.67 46.3438H147.431C147.783 40.2109 150.341 35.2695 155.107 31.5195C159.873 27.7695 166.298 25.8945 174.384 25.8945C182.431 25.8945 188.72 27.7695 193.252 31.5195C197.783 35.2695 200.048 40.3672 200.048 46.8125V89H185.517V80.2695H185.283C183.798 83.0039 181.65 85.3086 178.837 87.1836C176.025 89.0586 172.099 89.9961 167.06 89.9961ZM170.693 79.0391C175.537 79.0391 179.209 77.7891 181.709 75.2891C184.209 72.75 185.459 69.6836 185.459 66.0898V59.4102C184.56 59.9961 182.822 60.543 180.244 61.0508C177.666 61.5195 174.853 61.9883 171.806 62.457C168.642 62.9258 165.888 63.8242 163.545 65.1523C161.24 66.4414 160.087 68.4922 160.087 71.3047C160.087 73.7266 161.045 75.6211 162.959 76.9883C164.873 78.3555 167.451 79.0391 170.693 79.0391Z" fill="black"/>
<path d="M223.08 1.69531V89H208.315V1.69531H223.08Z" fill="black"/>
<path d="M233.339 113.492V101.48H240.663C242.655 101.48 244.198 100.934 245.292 99.8398C246.425 98.7852 247.421 97.0469 248.28 94.625L250.566 88.6484L226.718 27.125H242.363L253.73 59.3516C254.511 61.6562 255.273 63.9609 256.015 66.2656C256.757 68.5312 257.48 70.7969 258.183 73.0625C259.589 68.5312 261.073 63.9609 262.636 59.3516L273.945 27.125H289.413L261.757 99.1953C258.085 108.727 251.835 113.492 243.007 113.492H233.339Z" fill="black"/>
<path d="M326.977 27.125V39.0195H314.379V71.2461C314.379 73.4727 314.828 75.0156 315.727 75.875C316.625 76.6953 318.266 77.1055 320.648 77.1055H326.977V89H318.07C311.781 89 307.113 87.7305 304.066 85.1914C301.059 82.6523 299.555 78.7266 299.555 73.4141V39.0195H288.773V27.125H299.555V10.25H314.379V27.125H326.977Z" fill="black"/>
<path d="M331.493 89V27.125H346.259V89H331.493ZM338.876 17.9258C336.337 17.9258 334.227 17.125 332.548 15.5234C330.868 13.8828 330.028 11.8711 330.028 9.48828C330.028 7.10547 330.868 5.11328 332.548 3.51172C334.227 1.91016 336.337 1.10938 338.876 1.10938C341.376 1.10938 343.466 1.91016 345.145 3.51172C346.825 5.11328 347.665 7.10547 347.665 9.48828C347.665 11.8711 346.825 13.8828 345.145 15.5234C343.466 17.125 341.376 17.9258 338.876 17.9258Z" fill="black"/>
<path d="M381.947 90.4062C375.931 90.4062 370.638 89.0391 366.068 86.3047C361.537 83.5703 358.002 79.7812 355.462 74.9375C352.962 70.0938 351.712 64.4883 351.712 58.1211C351.712 51.7539 352.962 46.1484 355.462 41.3047C358.002 36.4219 361.537 32.6133 366.068 29.8789C370.638 27.1055 375.931 25.7188 381.947 25.7188C387.142 25.7188 391.771 26.7344 395.834 28.7656C399.896 30.7578 403.158 33.5312 405.619 37.0859C408.119 40.6016 409.584 44.6641 410.013 49.2734H395.541C394.994 45.9531 393.568 43.2578 391.263 41.1875C388.998 39.0781 385.951 38.0234 382.123 38.0234C377.279 38.0234 373.49 39.8398 370.755 43.4727C368.021 47.1055 366.654 51.9883 366.654 58.1211C366.654 64.2148 368.021 69.0781 370.755 72.7109C373.49 76.3047 377.279 78.1016 382.123 78.1016C385.99 78.1016 388.998 77.0859 391.146 75.0547C393.294 72.9844 394.72 70.2305 395.423 66.793H410.013C409.662 71.3242 408.236 75.3672 405.736 78.9219C403.275 82.4766 399.994 85.2891 395.892 87.3594C391.83 89.3906 387.181 90.4062 381.947 90.4062Z" fill="black"/>
<path d="M439.432 90.4648C431.893 90.4648 425.584 88.707 420.506 85.1914C415.467 81.6367 412.713 76.5391 412.245 69.8984H426.834C427.147 72.9062 428.358 75.25 430.467 76.9297C432.577 78.5703 435.487 79.3906 439.198 79.3906C442.752 79.3906 445.545 78.6875 447.577 77.2812C449.647 75.875 450.682 74.0781 450.682 71.8906C450.682 70.0156 449.92 68.5117 448.397 67.3789C446.873 66.2461 444.823 65.4062 442.245 64.8594L431.698 62.6914C419.666 60.1914 413.651 54.2344 413.651 44.8203C413.651 39.1172 415.916 34.5273 420.448 31.0508C424.979 27.5352 431.014 25.7773 438.553 25.7773C446.053 25.7773 452.147 27.6328 456.834 31.3438C461.561 35.0156 464.002 40.0352 464.159 46.4023H450.272C450.194 43.6289 449.12 41.3438 447.049 39.5469C444.979 37.75 442.264 36.8516 438.905 36.8516C435.662 36.8516 433.104 37.5742 431.229 39.0195C429.354 40.4648 428.416 42.2422 428.416 44.3516C428.416 46.1875 429.139 47.6914 430.584 48.8633C432.03 49.9961 434.041 50.8555 436.62 51.4414L447.752 53.7266C453.885 55.0156 458.397 57.0469 461.287 59.8203C464.217 62.5938 465.682 66.2461 465.682 70.7773C465.682 74.8008 464.549 78.2969 462.284 81.2656C460.057 84.1953 456.971 86.4609 453.026 88.0625C449.08 89.6641 444.549 90.4648 439.432 90.4648Z" fill="black"/>
<path d="M530.045 89.7812C527.362 89.7812 524.888 89.2083 522.623 88.0625C520.357 86.8906 518.482 85.1198 516.998 82.75H516.92V89H510.435V30.7969H517.076V53.8438H517.154C518.482 51.526 520.292 49.8073 522.584 48.6875C524.875 47.5417 527.362 46.9688 530.045 46.9688C533.638 46.9688 536.776 47.8672 539.459 49.6641C542.141 51.4609 544.224 53.974 545.709 57.2031C547.193 60.4062 547.935 64.1302 547.935 68.375C547.935 72.5938 547.193 76.3177 545.709 79.5469C544.224 82.75 542.141 85.263 539.459 87.0859C536.776 88.8828 533.638 89.7812 530.045 89.7812ZM529.029 83.8047C532.597 83.8047 535.513 82.5026 537.779 79.8984C540.071 77.2682 541.216 73.4271 541.216 68.375C541.216 63.3229 540.071 59.4818 537.779 56.8516C535.513 54.2214 532.597 52.9062 529.029 52.9062C525.201 52.9062 522.154 54.3255 519.888 57.1641C517.649 59.9766 516.529 63.7135 516.529 68.375C516.529 73.0365 517.649 76.7734 519.888 79.5859C522.154 82.3984 525.201 83.8047 529.029 83.8047Z" fill="black"/>
<path d="M551.22 105.328V99.4688H555.282C557.73 99.4688 559.592 97.8151 560.868 94.5078L563.134 88.6484L547.157 47.75H554.345L563.251 71.5C563.824 73.0365 564.384 74.5859 564.93 76.1484C565.503 77.6849 566.05 79.2214 566.571 80.7578C567.118 79.2214 567.665 77.6849 568.212 76.1484C568.785 74.5859 569.358 73.0365 569.93 71.5L578.68 47.75H585.751L566.727 96.6562C565.66 99.4167 564.136 101.552 562.157 103.062C560.178 104.573 557.886 105.328 555.282 105.328H551.22Z" fill="black"/>
<path d="M725.218 51C725.218 79.1665 702.384 102 674.218 102C646.051 102 623.218 79.1665 623.218 51C623.218 22.8335 646.051 0 674.218 0C702.384 0 725.218 22.8335 725.218 51Z" fill="black"/>
<path d="M885.605 74.4345V39.8995H878.765V26.5726H885.605V12.7978H902.116V26.5726H912.967V39.8995H902.116V71.7219C902.116 73.3731 902.509 74.5524 903.296 75.2601C904.082 75.9677 905.419 76.3215 907.306 76.3215H912.967V89.25H901.998C896.731 89.25 892.681 88.4298 889.851 85.9924C887.02 83.555 885.605 79.7024 885.605 74.4345Z" fill="black"/>
<path fill-rule="evenodd" clip-rule="evenodd" d="M796.054 81.5107C794.257 84.1054 790.219 86.3462 786.797 88.2332C783.459 90.1202 779.48 91.0637 774.859 91.0637C768.955 91.0637 763.821 89.6091 759.456 86.7C755.092 83.7909 751.712 79.8989 749.316 75.0242C747.006 70.1494 745.851 64.7636 745.851 58.8667C745.851 52.8912 747.049 47.4661 749.445 42.5914C751.841 37.7166 755.178 33.8247 759.456 30.9156C763.821 28.0064 768.912 26.5519 774.731 26.5519C779.437 26.5519 783.459 27.4954 786.797 29.3824C790.219 31.2694 794.257 33.5102 796.054 36.1048V3.55406H812.596V89.25H796.054V81.5107ZM778.596 75.4043C788.278 75.4043 796.127 67.5553 796.127 57.873C796.127 48.1908 788.278 40.3418 778.596 40.3418C768.913 40.3418 761.064 48.1908 761.064 57.873C761.064 67.5553 768.913 75.4043 778.596 75.4043Z" fill="black"/>
<path fill-rule="evenodd" clip-rule="evenodd" d="M847.759 89.25C865.088 89.25 879.136 75.2021 879.136 57.873C879.136 40.544 865.088 26.4961 847.759 26.4961C830.43 26.4961 816.382 40.544 816.382 57.873C816.382 75.2021 830.43 89.25 847.759 89.25ZM847.759 75.4043C857.441 75.4043 865.29 67.5553 865.29 57.873C865.29 48.1908 857.441 40.3418 847.759 40.3418C838.077 40.3418 830.228 48.1908 830.228 57.873C830.228 67.5553 838.077 75.4043 847.759 75.4043Z" fill="black"/>
</svg>
